#define Logo_width 60
#define Logo_height 60
static unsigned char Logo_bits[] = {
   0x00, 0x00, 0x00, 0x00, 0x00, 0x00, 0x00, 0x00, 0x00, 0x00, 0x00, 0x00,
   0x00, 0x00, 0x00, 0x00, 0x00, 0x00, 0x00, 0x00, 0x00, 0x00, 0x00, 0x00,
   0x00, 0x00, 0x00, 0x00, 0x00, 0x00, 0x00, 0x00, 0x00, 0x00, 0x00, 0x00,
   0x00, 0x00, 0x00, 0x00, 0x00, 0x00, 0x00, 0x00, 0x00, 0x00, 0x00, 0x00,
   0x00, 0x00, 0x00, 0x00, 0x00, 0x00, 0x00, 0x00, 0x00, 0x00, 0x00, 0x00,
   0x00, 0x00, 0x00, 0x00, 0x00, 0x00, 0x00, 0x00, 0x00, 0x00, 0x00, 0x00,
   0x00, 0x00, 0x00, 0x00, 0x00, 0x00, 0x00, 0x00, 0x00, 0x00, 0x00, 0x00,
   0x00, 0x00, 0x00, 0x00, 0x00, 0x00, 0x00, 0x00, 0x00, 0x00, 0x00, 0x00,
   0x00, 0x1f, 0x00, 0x00, 0x00, 0x7c, 0x00, 0x00, 0x80, 0x3f, 0x00, 0x00,
   0x00, 0xfe, 0x00, 0x00, 0xc0, 0x60, 0x00, 0x00, 0x00, 0x83, 0x01, 0x00,
   0x60, 0xc0, 0xb8, 0x4b, 0x91, 0x01, 0x13, 0x00, 0x60, 0xc0, 0xa8, 0x58,
   0x9b, 0x01, 0x13, 0x00, 0x60, 0xc0, 0xa8, 0x58, 0x95, 0x01, 0x13, 0x00,
   0x6e, 0xc0, 0xb8, 0x69, 0x91, 0x01, 0x13, 0x00, 0x6a, 0xc0, 0x88, 0x68,
   0x91, 0x01, 0x13, 0x00, 0xca, 0xe0, 0x88, 0x48, 0x11, 0x83, 0x11, 0x00,
   0x8e, 0xff, 0x8b, 0x4b, 0x11, 0xfe, 0x10, 0x00, 0x08, 0x9f, 0x07, 0x00,
   0x00, 0x7f, 0x00, 0x00, 0x08, 0x00, 0x0f, 0x00, 0x80, 0x07, 0x00, 0x00,
   0x08, 0x00, 0x1e, 0x00, 0xc0, 0x03, 0x00, 0x00, 0x08, 0x00, 0x3c, 0x00,
   0xe0, 0x01, 0x00, 0x00, 0x0c, 0x00, 0x78, 0x00, 0xf0, 0x00, 0x00, 0x00,
   0x00, 0x00, 0xf0, 0x00, 0x70, 0x00, 0x00, 0x00, 0x00, 0x00, 0xe0, 0x01,
   0x38, 0x00, 0x00, 0x00, 0x00, 0x00, 0xc0, 0x03, 0x1c, 0x00, 0x00, 0x00,
   0x00, 0x00, 0x80, 0xf7, 0x0f, 0x00, 0x00, 0x00, 0x00, 0x00, 0x00, 0xff,
   0x0f, 0x00, 0x00, 0x00, 0x00, 0x00, 0x00, 0xff, 0x1f, 0x00, 0x00, 0x00,
   0x00, 0x00, 0x80, 0xff, 0x3f, 0x00, 0x00, 0x00, 0x00, 0x00, 0xc0, 0xff,
   0x7f, 0x00, 0x00, 0x00, 0x00, 0x00, 0xc0, 0xff, 0x7f, 0x00, 0x00, 0x00,
   0x00, 0x00, 0xc0, 0xff, 0x7f, 0x00, 0x00, 0x00, 0x00, 0x00, 0xe0, 0xff,
   0xff, 0x00, 0x00, 0x00, 0x00, 0x00, 0xe0, 0xff, 0xff, 0x00, 0x00, 0x00,
   0x00, 0x00, 0xe0, 0xff, 0xff, 0x00, 0x00, 0x00, 0x00, 0x00, 0xe0, 0xff,
   0xff, 0x00, 0x00, 0x00, 0x00, 0x00, 0xe0, 0xff, 0xff, 0x00, 0x00, 0x00,
   0x00, 0x00, 0xc0, 0xff, 0x7f, 0x00, 0x00, 0x00, 0x00, 0x00, 0xc0, 0xff,
   0x7f, 0x00, 0x00, 0x00, 0x00, 0x00, 0xc0, 0xff, 0x7f, 0x00, 0x00, 0x00,
   0x00, 0x00, 0x80, 0xff, 0x3f, 0x00, 0x00, 0x00, 0x00, 0x00, 0x00, 0xff,
   0x1f, 0x00, 0x00, 0x00, 0x00, 0x00, 0x00, 0xfe, 0x0f, 0x00, 0x00, 0x00,
   0x00, 0x00, 0x00, 0xf0, 0x01, 0x00, 0x00, 0x00, 0x00, 0x00, 0x00, 0x00,
   0x00, 0x00, 0x00, 0x00, 0x00, 0x00, 0x00, 0x00, 0x00, 0x00, 0x00, 0x00,
   0x00, 0x00, 0x00, 0x00, 0x00, 0x00, 0x00, 0x00, 0x00, 0x00, 0x00, 0x00,
   0x00, 0x00, 0x00, 0x00, 0x00, 0x00, 0x00, 0x00, 0x00, 0x00, 0x00, 0x00,
   0x00, 0x00, 0x00, 0x00, 0x00, 0x00, 0x00, 0x00, 0x00, 0x00, 0x00, 0x00,
   0x00, 0x00, 0x00, 0x00, 0x00, 0x00, 0x00, 0x00, 0x00, 0x00, 0x00, 0x00,
   0x00, 0x00, 0x00, 0x00, 0x00, 0x00, 0x00, 0x00, 0x00, 0x00, 0x00, 0x00,
   0x00, 0x00, 0x00, 0x00, 0x00, 0x00, 0x00, 0x00, 0x00, 0x00, 0x00, 0x00};
