#define Logo_width 50
#define Logo_height 50
static char Logo_bits[] = {
   0x00, 0x00, 0x00, 0x00, 0x00, 0x00, 0x00, 0x00, 0x00, 0x00, 0x00, 0x00,
   0x00, 0x00, 0x00, 0x00, 0x00, 0x00, 0x00, 0x00, 0x00, 0x00, 0x00, 0x00,
   0x00, 0x00, 0x00, 0x00, 0x00, 0x00, 0x00, 0x00, 0x00, 0x00, 0x00, 0x00,
   0x00, 0x00, 0x00, 0x00, 0x00, 0x00, 0x00, 0x00, 0x00, 0x00, 0x00, 0x00,
   0x00, 0xf8, 0x00, 0x00, 0x00, 0xe0, 0x03, 0x00, 0xfc, 0x01, 0x00, 0x00,
   0xf0, 0x07, 0x00, 0x06, 0x03, 0x00, 0x00, 0x18, 0x0c, 0x00, 0x03, 0xc6,
   0x5d, 0x8a, 0x0c, 0x98, 0x00, 0x03, 0x46, 0xc5, 0xda, 0x0c, 0x98, 0x00,
   0x03, 0x46, 0xc5, 0xaa, 0x0c, 0x98, 0x00, 0x03, 0xc6, 0x4d, 0x8b, 0x0c,
   0x98, 0x00, 0x03, 0x46, 0x44, 0x8b, 0x0c, 0x98, 0x00, 0x06, 0x47, 0x44,
   0x8a, 0x18, 0x8c, 0x00, 0xfc, 0x5d, 0x5c, 0x8a, 0xf0, 0x87, 0x00, 0xf8,
   0x30, 0x00, 0x00, 0xe0, 0x03, 0x00, 0x00, 0x60, 0x00, 0x00, 0x30, 0x00,
   0x00, 0x00, 0xc0, 0x00, 0x00, 0x18, 0x00, 0x00, 0x00, 0x80, 0x01, 0x00,
   0x0c, 0x00, 0x00, 0x00, 0x00, 0x03, 0x00, 0x06, 0x00, 0x00, 0x00, 0x00,
   0x06, 0x00, 0x03, 0x00, 0x00, 0x00, 0x00, 0x0c, 0x80, 0x01, 0x00, 0x00,
   0x00, 0x00, 0x18, 0xc0, 0x00, 0x00, 0x00, 0x00, 0x00, 0xb0, 0x6f, 0x00,
   0x00, 0x00, 0x00, 0x00, 0xf0, 0x7f, 0x00, 0x00, 0x00, 0x00, 0x00, 0xf8,
   0xff, 0x00, 0x00, 0x00, 0x00, 0x00, 0xfc, 0xff, 0x01, 0x00, 0x00, 0x00,
   0x00, 0xfe, 0xff, 0x03, 0x00, 0x00, 0x00, 0x00, 0xfe, 0xff, 0x03, 0x00,
   0x00, 0x00, 0x00, 0xfe, 0xff, 0x03, 0x00, 0x00, 0x00, 0x00, 0xff, 0xff,
   0x07, 0x00, 0x00, 0x00, 0x00, 0xff, 0xff, 0x07, 0x00, 0x00, 0x00, 0x00,
   0xff, 0xff, 0x07, 0x00, 0x00, 0x00, 0x00, 0xff, 0xff, 0x07, 0x00, 0x00,
   0x00, 0x00, 0xff, 0xff, 0x07, 0x00, 0x00, 0x00, 0x00, 0xfe, 0xff, 0x03,
   0x00, 0x00, 0x00, 0x00, 0xfe, 0xff, 0x03, 0x00, 0x00, 0x00, 0x00, 0xfe,
   0xff, 0x03, 0x00, 0x00, 0x00, 0x00, 0xfc, 0xff, 0x01, 0x00, 0x00, 0x00,
   0x00, 0xf8, 0xff, 0x00, 0x00, 0x00, 0x00, 0x00, 0xf0, 0x7f, 0x00, 0x00,
   0x00, 0x00, 0x00, 0x80, 0x0f, 0x00, 0x00, 0x00, 0x00, 0x00, 0x00, 0x00,
   0x00, 0x00, 0x00, 0x00, 0x00, 0x00, 0x00, 0x00, 0x00, 0x00, 0x00, 0x00,
   0x00, 0x00, 0x00, 0x00, 0x00, 0x00, 0x00, 0x00, 0x00, 0x00, 0x00, 0x00,
   0x00, 0x00, 0x00, 0x00, 0x00, 0x00, 0x00, 0x00, 0x00, 0x00, 0x00, 0x00,
   0x00, 0x00};
